<?xml version="1.0" encoding="UTF-8" standalone="no"?>
<!DOCTYPE svg PUBLIC "-//W3C//DTD SVG 1.1//EN" "http://www.w3.org/Graphics/SVG/1.1/DTD/svg11.dtd">
<svg version="1.1" xmlns="http://www.w3.org/2000/svg" xmlns:xlink="http://www.w3.org/1999/xlink" preserveAspectRatio="xMidYMid meet" viewBox="0 0 850 705.5" width="400" height="400"><defs><path d="M668.05 144.09L662.06 144.09C662.06 167.22 662.06 180.06 662.06 182.63C657.97 184.29 655.99 188.95 657.65 193.04C659.3 197.13 663.96 199.11 668.05 197.45C672.15 195.8 674.12 191.14 672.47 187.05C671.65 185.04 670.06 183.45 668.05 182.63C668.05 177.49 668.05 164.65 668.05 144.09Z" id="a1oAoqwFyO"></path><path d="M641.08 571.63L641.08 74.16L625.1 74.16L625.1 571.63C600.53 571.63 586.87 571.63 584.14 571.63C563.73 571.63 547.18 588.18 547.18 608.59C547.18 608.59 547.18 608.59 547.18 608.59C547.18 608.59 547.18 608.59 547.18 608.59L719 608.59C719 608.59 719 608.59 719 608.59C719 588.18 702.45 571.63 682.04 571.63C682.04 571.63 682.04 571.63 682.04 571.63C682.04 571.63 668.39 571.63 641.08 571.63Z" id="dqCVtYaVu"></path><path d="M547.27 155.26L727.27 155.26C720.66 72.72 716.99 26.86 716.26 17.69C715.43 7.86 707.22 0.29 697.36 0.24C685.34 0.24 589.2 0.24 577.18 0.24C567.31 0.29 559.11 7.86 558.27 17.69C556.81 36.03 553.14 81.89 547.27 155.26Z" id="b5Y9EvBt6X"></path><path d="M61.03 457.29L584.95 457.29C584.95 425.2 584.95 407.37 584.95 403.8C584.95 259.36 467.44 141.84 322.99 141.84C178.55 141.84 61.03 259.36 61.03 403.8C61.03 410.93 61.03 428.76 61.03 457.29Z" id="a1lRE59E5k"></path><path d="M61.03 457.29L584.95 457.29C584.95 425.2 584.95 407.37 584.95 403.8C584.95 259.36 467.44 141.84 322.99 141.84C178.55 141.84 61.03 259.36 61.03 403.8C61.03 410.93 61.03 428.76 61.03 457.29Z" id="b4rRMKkuci"></path><path d="M532.14 475.8C531.34 431.68 495.36 396.31 451.23 396.26C427.09 396.26 233.98 396.26 209.84 396.26C165.71 396.31 129.73 431.68 128.93 475.8C209.57 475.8 491.81 475.8 532.14 475.8Z" id="cfow8mQd"></path><path d="M80.92 305.74C36.23 305.74 0 341.97 0 386.66C0 431.35 36.23 467.58 80.92 467.58C125.61 467.58 161.84 431.35 161.84 386.66C161.84 341.97 125.61 305.74 80.92 305.74Z" id="cOuMIWyV"></path><path d="M571.92 305.74C527.23 305.74 491 341.97 491 386.66C491 431.35 527.23 467.58 571.92 467.58C616.61 467.58 652.84 431.35 652.84 386.66C652.84 341.97 616.61 305.74 571.92 305.74Z" id="c6xOOoG2l"></path><path d="M510.89 427.8L510.89 457.97L137.15 457.97L137.15 427.8L53.49 427.8C53.49 516.04 53.49 565.06 53.49 574.87C53.49 593.63 68.7 608.84 87.46 608.84C134.77 608.84 513.26 608.84 560.58 608.84C579.34 608.84 594.55 593.63 594.55 574.87C594.55 574.87 594.55 574.87 594.55 574.87C594.55 565.06 594.55 516.04 594.55 427.8L510.89 427.8Z" id="a1tU0X49FM"></path><path d="M80.92 370.2C71.83 370.2 64.46 377.57 64.46 386.66C64.46 395.75 71.83 403.11 80.92 403.11C90.01 403.11 97.38 395.75 97.38 386.66C97.38 377.57 90.01 370.2 80.92 370.2Z" id="a1stCEDOXs"></path><path d="M571.92 370.2C562.83 370.2 555.46 377.57 555.46 386.66C555.46 395.75 562.83 403.11 571.92 403.11C581.01 403.11 588.38 395.75 588.38 386.66C588.38 377.57 581.01 370.2 571.92 370.2Z" id="beL5HWMVG"></path><path d="M365.74 169.81C365.74 169.81 365.74 219.97 365.74 219.97C362.18 220.08 344.39 220.62 312.35 221.59C310.41 190.52 309.33 173.26 309.11 169.81C309.11 169.81 315.59 148.78 312.35 139.07C309.11 129.36 352.8 132.6 352.8 132.6C355.39 140.04 354.42 163.34 365.74 169.81Z" id="d2DPnEas0"></path><path d="M393.25 582.4L423.99 611.52L440.17 579.16L412.67 559.75L412.67 559.75L393.25 582.4Z" id="a15uEPANyR"></path><path d="M294.55 582.4L263.81 611.52L247.63 579.16L275.14 559.75L275.14 559.75L294.55 582.4Z" id="ghGyLWlfe"></path><path d="M402.15 345.36C402.15 345.36 518.64 384.19 512.17 421.41C512.17 421.41 455.54 589.68 455.54 589.68C455.54 589.68 428.04 589.68 407 560.55C408.46 557.32 420.11 531.43 421.56 528.19C421.56 528.19 415.09 510.4 426.42 507.16C426.42 507.16 444.22 447.3 444.22 447.3C444.22 447.3 361.7 440.82 343.9 410.08C341.74 404.9 330.96 379.02 311.54 332.42C359.87 339.32 390.07 343.64 402.15 345.36Z" id="cv3LYywNQ"></path><path d="M285.65 345.36C285.65 345.36 169.16 384.19 175.63 421.41C182.1 458.62 232.26 589.68 232.26 589.68C232.26 589.68 259.77 589.68 280.8 560.55C279.34 557.32 267.69 531.43 266.24 528.19C266.24 528.19 272.71 510.4 261.38 507.16C261.38 507.16 243.59 447.3 243.59 447.3C243.59 447.3 326.1 440.82 343.9 410.08C346.06 404.9 356.85 379.02 376.26 332.42C327.94 339.32 297.73 343.64 285.65 345.36Z" id="g2ghR8VFMs"></path><path d="M436.13 596.15C436.13 596.15 434.51 652.78 434.51 652.78C434.51 652.78 450.69 686.76 426.42 686.76C426.42 686.76 390.82 660.87 394.06 634.98C394.06 634.98 382.73 599.39 382.73 599.39C382.73 599.39 364.94 563.79 382.73 560.55C382.73 560.55 407 565.41 407 565.41C407 565.41 400.53 594.53 418.33 599.39C421.89 598.74 434.51 584.82 436.13 596.15Z" id="eWhTTaBvs"></path><path d="M251.68 596.15C251.68 596.15 253.29 652.78 253.29 652.78C253.29 652.78 237.11 686.76 261.38 686.76C285.65 686.76 296.98 660.87 293.74 634.98C290.51 609.09 305.07 599.39 305.07 599.39C305.07 599.39 322.87 563.79 305.07 560.55C287.27 557.32 280.8 565.41 280.8 565.41C280.8 565.41 287.27 594.53 269.47 599.39C265.91 598.74 253.29 584.82 251.68 596.15Z" id="e7nm3sDpdS"></path><path d="M327.72 76.78C307.17 76.78 290.51 93.44 290.51 113.99C290.51 134.54 307.17 151.2 327.72 151.2C348.27 151.2 364.94 134.54 364.94 113.99C364.94 93.44 348.27 76.78 327.72 76.78Z" id="feke5EFTO"></path><path d="M333.38 177.9L310.73 160.1L255.72 185.99C254.75 274.33 254.21 323.41 254.1 333.23C254.1 333.23 220.13 349.41 229.83 370.44C229.83 370.44 258.96 376.91 271.9 389.86C284.84 402.8 357.65 385 388.4 375.3C419.14 365.59 427.23 354.26 427.23 354.26C425.18 351.35 414.93 336.79 396.49 310.58L414.28 198.93L359.28 161.95L333.38 177.9Z" id="aNWIrAtg"></path><path d="M370.75 85.22C369.59 82.41 371.41 79.1 369.71 76.47C367.97 73.79 363.56 73.23 360.56 71.41C355.93 68.6 355.09 63.1 350.76 60.01C347.63 57.79 343.18 57.19 339.01 57.32C334.83 57.44 330.72 58.2 326.54 58.28C320.91 58.41 315.31 57.26 310.18 54.93C310.49 55.54 312.95 60.36 313.26 60.96C309.84 60.21 306.57 58.89 303.59 57.04C302.23 58.73 304.72 61.29 303.18 62.88C302.55 63.39 301.8 63.74 301 63.89C295.06 65.58 289.46 68.31 284.48 71.95C283.32 72.68 282.37 73.69 281.7 74.88C280.89 76.66 281.61 78.63 281.54 80.52C281.43 83.96 278.81 86.95 276.95 90.05C275.09 93.15 274.08 97.16 276.84 99.79C277.51 100.32 278.16 100.89 278.77 101.49C281.54 104.75 276.64 109.53 279 113C280.03 114.5 282.13 115.26 283.95 116.15C287.45 117.78 290.39 120.41 292.42 123.69C292.28 122.65 291.14 114.32 291 113.28C290.85 112.76 290.95 112.19 291.28 111.76C291.97 111.06 293.41 111.34 294.36 110.87C295.4 110.36 295.48 109.19 295.44 108.21C295.41 107.46 295.15 101.41 295.12 100.65C294.98 97.25 294.94 96.8 297.44 94.05C299.19 92.13 301.94 90.98 304.71 90.13C311.03 88.18 317.82 87.51 324.54 86.85C332.34 86.09 341.12 82.3 347.18 86.32C352.14 89.61 353.79 95.02 356.18 99.81C358.33 104.12 363.84 116.82 368.43 109.95C371.31 105.63 375.72 93.47 372.96 88.66C372.15 87.56 371.41 86.41 370.75 85.22Z" id="ag2uMGMdm"></path><path d="M334.11 103.2C333.79 103.2 333.53 103.45 333.53 103.77C333.53 105.33 333.53 117.8 333.53 119.35C333.53 119.67 333.79 119.93 334.11 119.93C336.79 119.93 358.25 119.93 360.93 119.93C361.25 119.93 361.51 119.67 361.51 119.35C361.51 117.8 361.51 105.33 361.51 103.77C361.51 103.45 361.25 103.2 360.93 103.2C355.57 103.2 339.47 103.2 334.11 103.2Z" id="a3bEB474ev"></path><path d="M337.11 104.57C336.51 104.57 336.03 105.05 336.03 105.65C336.03 106.83 336.03 116.3 336.03 117.48C336.03 118.07 336.51 118.56 337.11 118.56C339.19 118.56 355.85 118.56 357.93 118.56C358.53 118.56 359.01 118.07 359.01 117.48C359.01 116.3 359.01 106.83 359.01 105.65C359.01 105.05 358.53 104.57 357.93 104.57C353.77 104.57 341.27 104.57 337.11 104.57Z" id="a2M8kmmi5D"></path><path d="M334.41 108.33C334.41 108.33 334.41 108.33 334.41 108.33C334.41 110.27 334.41 111.35 334.41 111.56C334.41 111.56 334.41 111.56 334.41 111.56C326.03 111.56 321.37 111.56 320.44 111.56C320.44 111.56 320.44 111.56 320.44 111.56C320.44 109.62 320.44 108.54 320.44 108.33C320.44 108.33 320.44 108.33 320.44 108.33C328.82 108.33 333.48 108.33 334.41 108.33Z" id="a7kCPThAT9"></path><path d="M296.13 103.2C295.81 103.2 295.55 103.45 295.55 103.77C295.55 105.33 295.55 117.8 295.55 119.35C295.55 119.67 295.81 119.93 296.13 119.93C298.81 119.93 320.27 119.93 322.95 119.93C323.27 119.93 323.53 119.67 323.53 119.35C323.53 117.8 323.53 105.33 323.53 103.77C323.53 103.45 323.27 103.2 322.95 103.2C317.59 103.2 301.49 103.2 296.13 103.2Z" id="a6Tf0g9rfK"></path><path d="M299.13 104.57C298.53 104.57 298.05 105.05 298.05 105.65C298.05 106.83 298.05 116.3 298.05 117.48C298.05 118.08 298.53 118.56 299.13 118.56C301.21 118.56 317.87 118.56 319.95 118.56C320.55 118.56 321.03 118.08 321.03 117.48C321.03 116.3 321.03 106.83 321.03 105.65C321.03 105.05 320.55 104.57 319.95 104.57C315.79 104.57 303.29 104.57 299.13 104.57Z" id="d3tzrvLjvW"></path><path d="M374.37 297.67C382.09 297.67 388.35 303.94 388.35 311.66C388.35 311.66 388.35 311.66 388.35 311.66L267.48 311.66C267.48 311.66 267.48 311.66 267.48 311.66C267.48 303.94 273.74 297.67 281.47 297.67C300.05 297.67 365.08 297.67 374.37 297.67Z" id="c6wyc66Dtf"></path><path d="M379.26 296.95C378.87 295.34 377.24 294.37 375.64 294.77C374.3 295.1 373.37 296.3 373.37 297.67C373.37 297.69 373.37 297.7 373.37 297.72C373 297.75 372.63 297.83 372.27 297.95C372.07 297.13 371.53 296.44 370.79 296.04C371.75 295.51 372.51 294.68 372.95 293.67C375.16 293.89 377.13 292.28 377.35 290.07C377.57 287.86 375.95 285.9 373.75 285.68C373.46 285.65 373.16 285.65 372.87 285.69C372.33 285.69 371.79 285.78 371.27 285.96C370.9 284.35 369.29 283.36 367.68 283.73C366.08 284.11 365.08 285.72 365.46 287.32C365.48 287.41 365.5 287.5 365.53 287.58C365.41 287.67 365.3 287.76 365.19 287.85C364.62 287.37 363.89 287.12 363.14 287.17C362.24 284.58 359.41 283.21 356.81 284.11C354.84 284.79 353.51 286.64 353.47 288.72C353.07 288.75 352.68 288.83 352.29 288.96C352.25 288.79 352.19 288.62 352.12 288.46C352.92 287.76 353.38 286.75 353.39 285.69C353.25 283.35 351.24 281.56 348.9 281.69C348.35 281.69 347.81 281.79 347.3 281.96C346.92 280.36 345.31 279.36 343.71 279.74C342.1 280.12 341.11 281.72 341.48 283.33C341.5 283.42 341.53 283.5 341.56 283.59C340.28 284.47 339.49 285.9 339.42 287.45C339.38 287.49 339.33 287.52 339.29 287.56C339.36 287.27 339.4 286.98 339.41 286.69C339.26 284.34 337.25 282.56 334.91 282.69C334.37 282.69 333.83 282.78 333.31 282.96C332.94 281.36 331.33 280.36 329.72 280.74C328.12 281.11 327.12 282.72 327.5 284.33C327.52 284.41 327.54 284.5 327.57 284.59C325.31 286.15 324.74 289.25 326.3 291.52C326.65 292.01 327.08 292.44 327.57 292.78C327.37 293.36 327.37 293.99 327.57 294.57C327.07 294.92 326.64 295.36 326.29 295.87C325.86 294.28 324.22 293.35 322.63 293.79C321.44 294.11 320.58 295.14 320.46 296.37C320.06 296.13 319.62 295.96 319.17 295.85C319.98 295.32 320.62 294.56 321.01 293.67C323.21 293.89 325.18 292.28 325.4 290.07C325.62 287.86 324.01 285.9 321.8 285.68C321.51 285.65 321.22 285.65 320.93 285.69C320.38 285.69 319.84 285.78 319.33 285.96C318.95 284.35 317.34 283.36 315.74 283.73C314.13 284.11 313.14 285.72 313.51 287.32C313.53 287.41 313.56 287.5 313.59 287.58C313.52 287.63 313.46 287.68 313.4 287.73C313.25 287.71 313.09 287.68 312.93 287.68C312.39 287.69 311.85 287.78 311.34 287.96C311.32 287.88 311.29 287.81 311.26 287.74C311.61 286.15 310.6 284.58 309.01 284.24C308.75 284.18 308.47 284.16 308.2 284.17C307.27 281.58 304.41 280.23 301.82 281.16C299.23 282.1 297.88 284.95 298.81 287.55C299.12 288.4 299.65 289.16 300.36 289.73C300.02 289.77 299.68 289.85 299.35 289.95C298.96 288.36 297.36 287.38 295.76 287.77C295.34 287.87 294.94 288.07 294.59 288.35C293.69 287.28 292.36 286.67 290.96 286.69C290.41 286.69 289.87 286.78 289.36 286.96C288.98 285.35 287.38 284.36 285.77 284.73C284.16 285.11 283.17 286.72 283.54 288.32C283.57 288.41 283.59 288.5 283.62 288.58C282.27 289.51 281.47 291.04 281.47 292.68C281.47 292.69 281.47 292.71 281.47 292.72C280.76 292.62 280.04 292.7 279.37 292.95C278.99 291.35 277.39 290.35 275.78 290.73C274.17 291.1 273.18 292.71 273.56 294.32C273.58 294.4 273.6 294.49 273.63 294.57C271.35 296.11 270.76 299.21 272.3 301.48C273.46 303.19 275.55 304.01 277.56 303.53C278.03 306.24 280.6 308.06 283.31 307.59C284.91 307.31 286.27 306.28 286.96 304.81C290.56 305.28 294.21 305.12 297.75 304.33C298.66 306.92 301.5 308.29 304.09 307.39C305.41 306.93 306.47 305.94 307.02 304.66C307.75 304.64 308.47 304.47 309.12 304.14C310.47 306.53 313.5 307.37 315.89 306.02C316.84 305.49 317.58 304.66 318.01 303.66C320.3 303.23 322.58 304.49 323.42 306.66C324.78 304.81 326.87 303.65 329.16 303.49C331.22 304.06 333.42 303.23 334.57 301.42C333.88 304.09 335.49 306.82 338.16 307.51C340.53 308.12 343.01 306.91 343.98 304.66C344.71 304.64 345.43 304.47 346.08 304.14C347.43 306.53 350.46 307.37 352.85 306.02C353.8 305.49 354.54 304.66 354.97 303.66C355.7 303.65 356.42 303.47 357.07 303.14C358.4 305.52 361.42 306.37 363.8 305.03C364.03 304.9 364.26 304.75 364.47 304.58C364.96 307.28 367.55 309.07 370.25 308.58C371.5 308.36 372.61 307.66 373.37 306.64C375.54 308.31 378.66 307.89 380.32 305.72C380.57 305.39 380.78 305.04 380.94 304.66C383.15 304.88 385.12 303.27 385.34 301.06C385.56 298.85 383.95 296.89 381.74 296.67C381.45 296.64 381.15 296.64 380.86 296.68C380.32 296.68 379.78 296.77 379.26 296.95ZM291.57 294.69C291.53 294.69 291.49 294.68 291.46 294.68C291.31 294.68 291.16 294.7 291.01 294.72C291.02 294.7 291.03 294.69 291.04 294.67C291.22 294.66 291.4 294.64 291.58 294.61C291.57 294.64 291.57 294.66 291.57 294.69ZM333.26 292.78C334.02 292.25 334.62 291.52 334.99 290.67C336.32 290.67 337.58 290.1 338.47 289.1C338.43 289.29 338.41 289.49 338.41 289.68C338.41 289.99 338.46 290.29 338.56 290.58C337.7 291.18 337.05 292.03 336.7 293.01C335.62 292.59 334.41 292.57 333.31 292.95C333.3 292.89 333.27 292.84 333.26 292.78ZM363.23 293.14C363.36 293.14 363.49 293.13 363.61 293.11C363.81 293.76 364.13 294.36 364.57 294.88C364.47 294.9 364.37 294.92 364.28 294.95C364.12 294.31 363.75 293.74 363.23 293.32C363.23 293.26 363.24 293.2 363.23 293.14Z" id="a1JG53voJZ"></path><path d="M277.55 302.67C271.79 302.67 267.12 307.34 267.12 313.1C267.12 313.28 267.12 313.47 267.13 313.66C267.81 322.96 273.22 397.37 273.89 406.67C274.19 412.21 278.77 416.55 284.31 416.55C293.03 416.55 362.81 416.55 371.53 416.55C377.07 416.55 381.65 412.21 381.94 406.67C382.62 397.37 388.03 322.96 388.71 313.66C389.02 307.91 384.6 302.99 378.85 302.68C378.67 302.67 378.48 302.67 378.29 302.67C358.14 302.67 297.69 302.67 277.55 302.67Z" id="b3tlQhO4Np"></path><path d="M288.46 302.67C288.46 302.67 288.46 302.67 288.46 302.67C288.46 371 288.46 408.95 288.46 416.55C288.46 416.55 288.46 416.55 288.46 416.55C284.86 416.55 282.87 416.55 282.47 416.55C282.47 416.55 282.47 416.55 282.47 416.55C282.47 348.22 282.47 310.26 282.47 302.67C282.47 302.67 282.47 302.67 282.47 302.67C286.06 302.67 288.06 302.67 288.46 302.67Z" id="d2YIN5I8mW"></path><path d="M305.44 302.67C305.44 302.67 305.44 302.67 305.44 302.67C305.44 371 305.44 408.95 305.44 416.55C305.44 416.55 305.44 416.55 305.44 416.55C301.85 416.55 299.85 416.55 299.45 416.55C299.45 416.55 299.45 416.55 299.45 416.55C299.45 348.22 299.45 310.26 299.45 302.67C299.45 302.67 299.45 302.67 299.45 302.67C303.05 302.67 305.04 302.67 305.44 302.67Z" id="aMGEmwH8"></path><path d="M322.42 302.67C322.42 302.67 322.42 302.67 322.42 302.67C322.42 371 322.42 408.95 322.42 416.55C322.42 416.55 322.42 416.55 322.42 416.55C318.83 416.55 316.83 416.55 316.43 416.55C316.43 416.55 316.43 416.55 316.43 416.55C316.43 348.22 316.43 310.26 316.43 302.67C316.43 302.67 316.43 302.67 316.43 302.67C320.03 302.67 322.02 302.67 322.42 302.67Z" id="etwZndeX"></path><path d="M339.41 302.67C339.41 302.67 339.41 302.67 339.41 302.67C339.41 371 339.41 408.95 339.41 416.55C339.41 416.55 339.41 416.55 339.41 416.55C335.81 416.55 333.81 416.55 333.41 416.55C333.41 416.55 333.41 416.55 333.41 416.55C333.41 348.22 333.41 310.26 333.41 302.67C333.41 302.67 333.41 302.67 333.41 302.67C337.01 302.67 339.01 302.67 339.41 302.67Z" id="d4O4UHqIYG"></path><path d="M356.39 302.67C356.39 302.67 356.39 302.67 356.39 302.67C356.39 371 356.39 408.95 356.39 416.55C356.39 416.55 356.39 416.55 356.39 416.55C352.79 416.55 350.79 416.55 350.39 416.55C350.39 416.55 350.39 416.55 350.39 416.55C350.39 348.22 350.39 310.26 350.39 302.67C350.39 302.67 350.39 302.67 350.39 302.67C353.99 302.67 355.99 302.67 356.39 302.67Z" id="a6P9yT6fom"></path><path d="M373.37 302.67C373.37 302.67 373.37 302.67 373.37 302.67C373.37 371 373.37 408.95 373.37 416.55C373.37 416.55 373.37 416.55 373.37 416.55C369.77 416.55 367.78 416.55 367.38 416.55C367.38 416.55 367.38 416.55 367.38 416.55C367.38 348.22 367.38 310.26 367.38 302.67C367.38 302.67 367.38 302.67 367.38 302.67C370.97 302.67 372.97 302.67 373.37 302.67Z" id="bzNAWeKc2"></path><path d="M367.36 359.12C355.71 365.91 349.24 369.69 347.95 370.44C347.95 370.44 301.02 409.27 333.38 415.74C333.38 415.74 373.83 388.24 373.83 388.24C374.59 387.38 378.36 383.06 385.16 375.3L367.36 359.12Z" id="b2N1Q9b4fl"></path><path d="M275.14 351.03C286.79 357.82 293.26 361.6 294.55 362.35C294.55 362.35 341.47 401.18 309.11 407.65C309.11 407.65 268.66 380.15 268.66 380.15C267.91 379.29 264.13 374.97 257.34 367.21L275.14 351.03Z" id="c19SVaIADZ"></path><path d="M393.25 197.32C405.87 198.29 412.88 198.83 414.28 198.93C414.28 198.93 430.46 213.5 428.85 232.91C428.85 232.91 443.41 274.98 440.17 292.78C440.17 292.78 443.41 321.9 438.55 333.23C433.7 344.55 393.25 388.24 393.25 388.24C393.25 388.24 356.04 359.12 357.65 357.5C360.89 354.26 377.07 338.08 406.19 308.96L381.92 276.6L393.25 197.32Z" id="a1OJYehMrN"></path><path d="M255.72 185.99C255.24 186.48 254.97 186.75 254.91 186.8C254.91 186.8 218.51 202.17 220.13 221.59C220.13 221.59 205.56 263.65 208.8 281.45C208.8 281.45 205.56 310.58 210.42 321.9C215.27 333.23 255.72 376.91 255.72 376.91C255.72 376.91 292.93 347.79 291.32 346.17C288.08 342.94 271.9 326.76 242.78 297.63L267.05 265.27L255.72 185.99Z" id="c4UG58hnee"></path></defs><g><g><use xlink:href="#a1oAoqwFyO" opacity="1" fill="#e6e6e6" fill-opacity="1"></use><g><use xlink:href="#a1oAoqwFyO" opacity="1" fill-opacity="0" stroke="#000000" stroke-width="1" stroke-opacity="0"></use></g></g><g><use xlink:href="#dqCVtYaVu" opacity="1" fill="#e6e6e6" fill-opacity="1"></use><g><use xlink:href="#dqCVtYaVu" opacity="1" fill-opacity="0" stroke="#000000" stroke-width="1" stroke-opacity="0"></use></g></g><g><use xlink:href="#b5Y9EvBt6X" opacity="1" fill="#6c63ff" fill-opacity="1"></use><g><use xlink:href="#b5Y9EvBt6X" opacity="1" fill-opacity="0" stroke="#000000" stroke-width="1" stroke-opacity="0"></use></g></g><g><use xlink:href="#a1lRE59E5k" opacity="1" fill="#3f3d56" fill-opacity="1"></use><g><use xlink:href="#a1lRE59E5k" opacity="1" fill-opacity="0" stroke="#000000" stroke-width="1" stroke-opacity="0"></use></g></g><g><use xlink:href="#b4rRMKkuci" opacity="1" fill="#000000" fill-opacity="1"></use><g><use xlink:href="#b4rRMKkuci" opacity="1" fill-opacity="0" stroke="#000000" stroke-width="1" stroke-opacity="0"></use></g></g><g><use xlink:href="#cfow8mQd" opacity="1" fill="#6c63ff" fill-opacity="1"></use><g><use xlink:href="#cfow8mQd" opacity="1" fill-opacity="0" stroke="#000000" stroke-width="1" stroke-opacity="0"></use></g></g><g><use xlink:href="#cOuMIWyV" opacity="1" fill="#3f3d56" fill-opacity="1"></use><g><use xlink:href="#cOuMIWyV" opacity="1" fill-opacity="0" stroke="#000000" stroke-width="1" stroke-opacity="0"></use></g></g><g><use xlink:href="#c6xOOoG2l" opacity="1" fill="#3f3d56" fill-opacity="1"></use><g><use xlink:href="#c6xOOoG2l" opacity="1" fill-opacity="0" stroke="#000000" stroke-width="1" stroke-opacity="0"></use></g></g><g><use xlink:href="#a1tU0X49FM" opacity="1" fill="#3f3d56" fill-opacity="1"></use><g><use xlink:href="#a1tU0X49FM" opacity="1" fill-opacity="0" stroke="#000000" stroke-width="1" stroke-opacity="0"></use></g></g><g><use xlink:href="#a1stCEDOXs" opacity="1" fill="#000000" fill-opacity="1"></use><g><use xlink:href="#a1stCEDOXs" opacity="1" fill-opacity="0" stroke="#000000" stroke-width="1" stroke-opacity="0"></use></g></g><g><use xlink:href="#beL5HWMVG" opacity="1" fill="#000000" fill-opacity="1"></use><g><use xlink:href="#beL5HWMVG" opacity="1" fill-opacity="0" stroke="#000000" stroke-width="1" stroke-opacity="0"></use></g></g><g><use xlink:href="#d2DPnEas0" opacity="1" fill="#ffb8b8" fill-opacity="1"></use><g><use xlink:href="#d2DPnEas0" opacity="1" fill-opacity="0" stroke="#000000" stroke-width="1" stroke-opacity="0"></use></g></g><g><use xlink:href="#a15uEPANyR" opacity="1" fill="#ffb8b8" fill-opacity="1"></use><g><use xlink:href="#a15uEPANyR" opacity="1" fill-opacity="0" stroke="#000000" stroke-width="1" stroke-opacity="0"></use></g></g><g><use xlink:href="#ghGyLWlfe" opacity="1" fill="#ffb8b8" fill-opacity="1"></use><g><use xlink:href="#ghGyLWlfe" opacity="1" fill-opacity="0" stroke="#000000" stroke-width="1" stroke-opacity="0"></use></g></g><g><use xlink:href="#cv3LYywNQ" opacity="1" fill="#2f2e41" fill-opacity="1"></use><g><use xlink:href="#cv3LYywNQ" opacity="1" fill-opacity="0" stroke="#000000" stroke-width="1" stroke-opacity="0"></use></g></g><g><use xlink:href="#g2ghR8VFMs" opacity="1" fill="#2f2e41" fill-opacity="1"></use><g><use xlink:href="#g2ghR8VFMs" opacity="1" fill-opacity="0" stroke="#000000" stroke-width="1" stroke-opacity="0"></use></g></g><g><use xlink:href="#eWhTTaBvs" opacity="1" fill="#2f2e41" fill-opacity="1"></use><g><use xlink:href="#eWhTTaBvs" opacity="1" fill-opacity="0" stroke="#000000" stroke-width="1" stroke-opacity="0"></use></g></g><g><use xlink:href="#e7nm3sDpdS" opacity="1" fill="#2f2e41" fill-opacity="1"></use><g><use xlink:href="#e7nm3sDpdS" opacity="1" fill-opacity="0" stroke="#000000" stroke-width="1" stroke-opacity="0"></use></g></g><g><use xlink:href="#feke5EFTO" opacity="1" fill="#ffb8b8" fill-opacity="1"></use><g><use xlink:href="#feke5EFTO" opacity="1" fill-opacity="0" stroke="#000000" stroke-width="1" stroke-opacity="0"></use></g></g><g><use xlink:href="#aNWIrAtg" opacity="1" fill="#7b00ff" fill-opacity="1"></use><g><use xlink:href="#aNWIrAtg" opacity="1" fill-opacity="0" stroke="#000000" stroke-width="1" stroke-opacity="0"></use></g></g><g><use xlink:href="#ag2uMGMdm" opacity="1" fill="#2f2e41" fill-opacity="1"></use><g><use xlink:href="#ag2uMGMdm" opacity="1" fill-opacity="0" stroke="#000000" stroke-width="1" stroke-opacity="0"></use></g></g><g><use xlink:href="#a3bEB474ev" opacity="1" fill="#3f3d56" fill-opacity="1"></use><g><use xlink:href="#a3bEB474ev" opacity="1" fill-opacity="0" stroke="#000000" stroke-width="1" stroke-opacity="0"></use></g></g><g><use xlink:href="#a2M8kmmi5D" opacity="1" fill="#ff6584" fill-opacity="1"></use><g><use xlink:href="#a2M8kmmi5D" opacity="1" fill-opacity="0" stroke="#000000" stroke-width="1" stroke-opacity="0"></use></g></g><g><use xlink:href="#a7kCPThAT9" opacity="1" fill="#3f3d56" fill-opacity="1"></use><g><use xlink:href="#a7kCPThAT9" opacity="1" fill-opacity="0" stroke="#000000" stroke-width="1" stroke-opacity="0"></use></g></g><g><use xlink:href="#a6Tf0g9rfK" opacity="1" fill="#3f3d56" fill-opacity="1"></use><g><use xlink:href="#a6Tf0g9rfK" opacity="1" fill-opacity="0" stroke="#000000" stroke-width="1" stroke-opacity="0"></use></g></g><g><use xlink:href="#d3tzrvLjvW" opacity="1" fill="#6c63ff" fill-opacity="1"></use><g><use xlink:href="#d3tzrvLjvW" opacity="1" fill-opacity="0" stroke="#000000" stroke-width="1" stroke-opacity="0"></use></g></g><g><use xlink:href="#c6wyc66Dtf" opacity="1" fill="#3f3d56" fill-opacity="1"></use><g><use xlink:href="#c6wyc66Dtf" opacity="1" fill-opacity="0" stroke="#000000" stroke-width="1" stroke-opacity="0"></use></g></g><g><use xlink:href="#a1JG53voJZ" opacity="1" fill="#f9a825" fill-opacity="1"></use><g><use xlink:href="#a1JG53voJZ" opacity="1" fill-opacity="0" stroke="#000000" stroke-width="1" stroke-opacity="0"></use></g></g><g><use xlink:href="#b3tlQhO4Np" opacity="1" fill="#3f3d56" fill-opacity="1"></use><g><use xlink:href="#b3tlQhO4Np" opacity="1" fill-opacity="0" stroke="#000000" stroke-width="1" stroke-opacity="0"></use></g></g><g><use xlink:href="#d2YIN5I8mW" opacity="1" fill="#6c63ff" fill-opacity="1"></use><g><use xlink:href="#d2YIN5I8mW" opacity="1" fill-opacity="0" stroke="#000000" stroke-width="1" stroke-opacity="0"></use></g></g><g><use xlink:href="#aMGEmwH8" opacity="1" fill="#6c63ff" fill-opacity="1"></use><g><use xlink:href="#aMGEmwH8" opacity="1" fill-opacity="0" stroke="#000000" stroke-width="1" stroke-opacity="0"></use></g></g><g><use xlink:href="#etwZndeX" opacity="1" fill="#6c63ff" fill-opacity="1"></use><g><use xlink:href="#etwZndeX" opacity="1" fill-opacity="0" stroke="#000000" stroke-width="1" stroke-opacity="0"></use></g></g><g><use xlink:href="#d4O4UHqIYG" opacity="1" fill="#6c63ff" fill-opacity="1"></use><g><use xlink:href="#d4O4UHqIYG" opacity="1" fill-opacity="0" stroke="#000000" stroke-width="1" stroke-opacity="0"></use></g></g><g><use xlink:href="#a6P9yT6fom" opacity="1" fill="#6c63ff" fill-opacity="1"></use><g><use xlink:href="#a6P9yT6fom" opacity="1" fill-opacity="0" stroke="#000000" stroke-width="1" stroke-opacity="0"></use></g></g><g><use xlink:href="#bzNAWeKc2" opacity="1" fill="#6c63ff" fill-opacity="1"></use><g><use xlink:href="#bzNAWeKc2" opacity="1" fill-opacity="0" stroke="#000000" stroke-width="1" stroke-opacity="0"></use></g></g><g><use xlink:href="#b2N1Q9b4fl" opacity="1" fill="#ffb8b8" fill-opacity="1"></use><g><use xlink:href="#b2N1Q9b4fl" opacity="1" fill-opacity="0" stroke="#000000" stroke-width="1" stroke-opacity="0"></use></g></g><g><use xlink:href="#c19SVaIADZ" opacity="1" fill="#ffb8b8" fill-opacity="1"></use><g><use xlink:href="#c19SVaIADZ" opacity="1" fill-opacity="0" stroke="#000000" stroke-width="1" stroke-opacity="0"></use></g></g><g><use xlink:href="#a1OJYehMrN" opacity="1" fill="#e6e6e6" fill-opacity="1"></use><g><use xlink:href="#a1OJYehMrN" opacity="1" fill-opacity="0" stroke="#000000" stroke-width="1" stroke-opacity="0"></use></g></g><g><use xlink:href="#c4UG58hnee" opacity="1" fill="#e6e6e6" fill-opacity="1"></use><g><use xlink:href="#c4UG58hnee" opacity="1" fill-opacity="0" stroke="#000000" stroke-width="1" stroke-opacity="0"></use></g></g></g></svg>